<svg xmlns="http://www.w3.org/2000/svg" xmlns:xlink="http://www.w3.org/1999/xlink" width="175.847" height="56.13" viewBox="0 0 175.847 56.13"><defs><style>.a{fill:url(#a);}.b{fill:url(#b);}.c{fill:url(#c);}.d{fill:url(#d);}.e{fill:url(#e);}.f{fill:url(#f);}.g{fill:url(#g);}.h{fill:url(#h);}.i{fill:url(#i);}</style><linearGradient id="a" x1="19.356" y1="-208.154" x2="-30.95" y2="348.477" gradientUnits="objectBoundingBox"><stop offset="0" stop-color="#e237ff"/><stop offset="0.12" stop-color="#b54cf7"/><stop offset="0.286" stop-color="#7e67ed"/><stop offset="0.448" stop-color="#517ee6"/><stop offset="0.602" stop-color="#2d8fdf"/><stop offset="0.746" stop-color="#149bdb"/><stop offset="0.876" stop-color="#05a3d8"/><stop offset="0.981" stop-color="#00a6d8"/></linearGradient><linearGradient id="b" x1="15.438" y1="-180.459" x2="-24.62" y2="304.748" xlink:href="#a"/><linearGradient id="c" x1="0.575" y1="-0.704" x2="0.468" y2="1.342" xlink:href="#a"/><linearGradient id="d" x1="0.551" y1="-0.671" x2="0.476" y2="1.375" xlink:href="#a"/><linearGradient id="e" x1="0.525" y1="-0.16" x2="0.451" y2="1.293" xlink:href="#a"/><linearGradient id="f" x1="0.548" y1="-0.595" x2="0.474" y2="1.451" xlink:href="#a"/><linearGradient id="g" x1="0.503" y1="0.276" x2="0.461" y2="1.243" xlink:href="#a"/><linearGradient id="h" x1="0.522" y1="-0.106" x2="0.448" y2="1.347" xlink:href="#a"/><linearGradient id="i" x1="0.5" y1="-0.532" x2="0.5" y2="1.871" gradientUnits="objectBoundingBox"><stop offset="0" stop-color="#e237ff"/><stop offset="0.105" stop-color="#b54cf7"/><stop offset="0.25" stop-color="#7e67ed"/><stop offset="0.392" stop-color="#517ee6"/><stop offset="0.527" stop-color="#2d8fdf"/><stop offset="0.653" stop-color="#149bdb"/><stop offset="0.767" stop-color="#05a3d8"/><stop offset="0.859" stop-color="#00a6d8"/></linearGradient></defs><g transform="translate(-115.157 -75.986)"><g transform="translate(115.157 75.986)"><path class="a" d="M600.4,196.277c.025.062.037.1.037.1A.654.654,0,0,0,600.4,196.277Z" transform="translate(-455.377 -160.325)"/><path class="b" d="M600.294,196.015c-.013-.031-.028-.068-.047-.112A.92.92,0,0,0,600.294,196.015Z" transform="translate(-455.267 -160.063)"/><path class="c" d="M132.625,193.363a5.959,5.959,0,0,0-1.334-4.064c-.97-1.213-2.669-2.366-6.308-3.882-2.851-1.213-4.064-1.759-4.064-3.579a2.781,2.781,0,0,1,3.033-2.851,3.86,3.86,0,0,1,3.518,2.548l3.579-1.881a7.26,7.26,0,0,0-6.915-4.549c-4.246,0-7.339,2.608-7.339,7.036a5.467,5.467,0,0,0,1.152,3.7c1.152,1.395,3.093,2.365,6.126,3.7,2.366,1.031,4.064,1.82,4.064,4.185a3.907,3.907,0,0,1-4.124,4c-3.154,0-4.61-2.79-5.095-4.124l-3.76,1.577a9,9,0,0,0,8.795,6.429C128.8,201.612,132.625,198.64,132.625,193.363Z" transform="translate(-115.157 -145.482)"/><path class="d" d="M206.665,197.366v3.518h4.367V175.712h-4.367v3.579a10.414,10.414,0,0,0-8.613-4.185c-6.429,0-12.252,4.488-12.252,13.162,0,8.856,5.884,13.344,12.252,13.344A10.618,10.618,0,0,0,206.665,197.366Zm-16.377-9.1c0-6.126,3.943-9.28,8.249-9.28,3.882,0,8.37,2.851,8.37,9.341,0,4.974-3.033,9.4-8.37,9.4C193.321,197.73,190.288,193.666,190.288,188.268Z" transform="translate(-164.687 -145.482)"/><path class="e" d="M309.257,163.073c0-6.793-4.367-13.344-12.252-13.344a10.824,10.824,0,0,0-8.613,4.124V138.911h-4.367v36.6h4.367v-3.518a10.687,10.687,0,0,0,8.795,4.246C304.829,176.235,309.257,169.987,309.257,163.073Zm-21.108-.061c0-6.065,4.306-9.4,8.37-9.4s8.249,3.275,8.249,9.462c0,5.034-3.093,9.28-8.188,9.28C291.425,172.353,288.149,168.167,288.149,163.012Z" transform="translate(-233.555 -120.104)"/><path class="f" d="M401.19,197.366v3.518h4.367V175.712H401.19v3.579a10.414,10.414,0,0,0-8.613-4.185c-6.429,0-12.252,4.488-12.252,13.162,0,8.856,5.883,13.344,12.252,13.344A10.618,10.618,0,0,0,401.19,197.366Zm-16.377-9.1c0-6.126,3.943-9.28,8.249-9.28,3.882,0,8.37,2.851,8.37,9.341,0,4.974-3.033,9.4-8.37,9.4C387.846,197.73,384.813,193.666,384.813,188.268Z" transform="translate(-301.073 -145.482)"/><path class="g" d="M551.131,127.871v3.518H555.5V106.217h-4.367V109.8a10.541,10.541,0,0,0-3.636-3.059l-1.462,3.234a9.318,9.318,0,0,1,5.341,8.862c0,4.24-2.2,8.082-6.16,9.124-4.821.575-8.018-2.032-10.736-8.855-2.218-5.567-1.83-17.919,1.579-28.273a5.747,5.747,0,0,1,1.769,6.527l1.669-1.564c-1.665,3.6-.566,4.525,0,7.181,0,0,2-1.148,2.247-2.138a5.079,5.079,0,0,1-1.764,3.7,7.588,7.588,0,0,1,2.124,6.792c2.212-2.248,7.85-13.073-3.66-22.087,0,0,4.023,1.044,5.418,3.506,0,0,.842-1.578,1.828-1.633-.1.035-1.325,1.119-1.156,1.933a35,35,0,0,0,4.337,1.947s.262-1.758,1.136-2.211c0,0-.789,1.892-.13,2.726a22.487,22.487,0,0,1,6.879,6.286c.938-4.729-3.556-14.446-12.869-14.361,0,0,.565-.774,2.187-.484,0,0-2.649-2.237-5.658-1.328-3.081-1.888,1.823-1.413,1.823-1.413a6.433,6.433,0,0,1,2.674-1.528,4.915,4.915,0,0,0-2.25-.684,6.3,6.3,0,0,1,3.443.315,13.767,13.767,0,0,1,5.65-.11c-2.294-2.816-12.211-5.378-16.136,2.642,0,0-1.007,1.7-1.8-1.224-2.023-7.425-10.549-9.388-17.025-6.082,1.47,1.378,7.593,3.126,10,2.2,0,0-1.473,1.143-1.421,1.523.667-.04,6.529,2.062,7.038,5.8-10.641-5.878-17.687-1.962-20.319,3.77a5.01,5.01,0,0,0,7-2.138,2.93,2.93,0,0,1-.473,2.642c2.045-.11,3.66-1.184,5.377-3.7a4.026,4.026,0,0,1-.4,2.417c1.493-1.154,5.073-.864,5.779-.319-1.345.369-11.69,2.307-6.716,15.734,1.736-7.046,6.862-6.956,4.309-10.452l1.371.619c.146-1,2.281-5.213,4.828-5.582.091-.007.181-.011.27-.013-2.141,6.563-6.32,26.513-1.614,35.682l-.024.013a11.73,11.73,0,0,0,10.723,6.385A10.618,10.618,0,0,0,551.131,127.871Z" transform="translate(-393.454 -75.986)"/><path class="h" d="M503.781,163.073c0-6.793-4.367-13.344-12.252-13.344a10.824,10.824,0,0,0-8.613,4.124V138.911h-4.367v36.6h4.367v-3.518a10.688,10.688,0,0,0,8.795,4.246C499.354,176.235,503.781,169.987,503.781,163.073Zm-21.107-.061c0-6.065,4.306-9.4,8.37-9.4s8.249,3.275,8.249,9.462c0,5.034-3.093,9.28-8.189,9.28C485.949,172.353,482.674,168.167,482.674,163.012Z" transform="translate(-369.941 -120.104)"/></g><path class="i" d="M679.638,182.929v-5.793H677.4v3.147h-1.755v-2.971H673.4v2.971h-1.7v-3.147h-2.242v13.207h7.94v2.133h-7.94v2.647h7.94v4.537h-7.94v2.647h10.182V187.7h-4v-2.9H673.4v2.9h-1.7v-4.767Z" transform="translate(-388.634 -70.918)"/></g></svg>