<svg xmlns="http://www.w3.org/2000/svg" width="112.026" height="112.411" viewBox="0 0 112.026 112.411"><defs><style>.a{fill:blue;opacity:0.03;}</style></defs><path class="a" d="M303.141,1131.066h81.985a4.14,4.14,0,0,0,4.14-4.14V1044.94a4.14,4.14,0,0,0-4.14-4.14H303.141a4.14,4.14,0,0,0-4.14,4.14v81.985A4.125,4.125,0,0,0,303.141,1131.066Z" transform="translate(-299 -1018.655)"/><path class="a" d="M211.681,992.609h37.647a3.072,3.072,0,0,0,3.081-3.081V951.881a3.072,3.072,0,0,0-3.081-3.081H211.681a3.072,3.072,0,0,0-3.081,3.081v37.647A3.072,3.072,0,0,0,211.681,992.609Z" transform="translate(-140.383 -948.8)"/></svg>