<svg xmlns="http://www.w3.org/2000/svg" width="74.343" height="73.035" viewBox="0 0 74.343 73.035"><defs><style>.a{fill:blue;opacity:0.03;}</style></defs><path class="a" d="M306.032,142.957h31.861a7.164,7.164,0,0,0,7.163-7.163v-31.83a7.164,7.164,0,0,0-7.163-7.163h-31.83a7.164,7.164,0,0,0-7.163,7.163v31.83A7.158,7.158,0,0,0,306.032,142.957Z" transform="translate(-270.714 -96.8)"/><path class="a" d="M407.293,237.588h30.8a5.782,5.782,0,0,0,5.793-5.793v-30.8A5.782,5.782,0,0,0,438.1,195.2h-30.8a5.782,5.782,0,0,0-5.793,5.793v30.8A5.8,5.8,0,0,0,407.293,237.588Z" transform="translate(-401.5 -164.553)"/></svg>