<svg xmlns="http://www.w3.org/2000/svg" width="98.695" height="99.034" viewBox="0 0 98.695 99.034"><defs><style>.a{fill:blue;opacity:0.03;}</style></defs><path class="a" d="M374.877,1120.324H302.648a3.647,3.647,0,0,1-3.648-3.648v-72.229a3.647,3.647,0,0,1,3.648-3.648h72.229a3.647,3.647,0,0,1,3.648,3.648v72.229A3.634,3.634,0,0,1,374.877,1120.324Z" transform="translate(-279.829 -1021.29)"/><path class="a" d="M244.481,987.4H211.314a2.706,2.706,0,0,1-2.714-2.714V951.514a2.706,2.706,0,0,1,2.714-2.714h33.167a2.706,2.706,0,0,1,2.714,2.714v33.167A2.706,2.706,0,0,1,244.481,987.4Z" transform="translate(-208.6 -948.8)"/></svg>