<svg xmlns="http://www.w3.org/2000/svg" width="98.923" height="99.263" viewBox="0 0 98.923 99.263"><defs><style>.a{fill:blue;opacity:0.03;}</style></defs><path class="a" d="M302.656,1120.508h72.4a3.656,3.656,0,0,0,3.656-3.656v-72.4a3.656,3.656,0,0,0-3.656-3.656h-72.4a3.656,3.656,0,0,0-3.656,3.656v72.4A3.642,3.642,0,0,0,302.656,1120.508Z" transform="translate(-299 -1021.245)"/><path class="a" d="M211.321,987.485h33.243a2.712,2.712,0,0,0,2.721-2.721V951.521a2.712,2.712,0,0,0-2.721-2.721H211.321a2.712,2.712,0,0,0-2.721,2.721v33.243A2.712,2.712,0,0,0,211.321,987.485Z" transform="translate(-148.362 -948.8)"/></svg>