<svg xmlns="http://www.w3.org/2000/svg" width="76.864" height="73.07" viewBox="0 0 76.864 73.07"><defs><style>.a{fill:blue;opacity:0.02;}</style></defs><g transform="translate(0)"><path class="a" d="M1584.141,149.325h45.044a3.752,3.752,0,0,0,3.74-3.74V100.54a3.752,3.752,0,0,0-3.74-3.74h-45.044a3.751,3.751,0,0,0-3.74,3.74v45.044A3.734,3.734,0,0,0,1584.141,149.325Z" transform="translate(-1580.4 -96.8)"/><path class="a" d="M1494.617,262.28h28.747a5.313,5.313,0,0,0,5.317-5.317V228.217a5.313,5.313,0,0,0-5.317-5.317h-28.747a5.313,5.313,0,0,0-5.317,5.317v28.747A5.313,5.313,0,0,0,1494.617,262.28Z" transform="translate(-1451.817 -189.21)"/></g></svg>