<svg xmlns="http://www.w3.org/2000/svg" width="96.047" height="96.378" viewBox="0 0 96.047 96.378"><defs><style>.a{fill:blue;opacity:0.03;}</style></defs><path class="a" d="M372.841,1118.191H302.55a3.55,3.55,0,0,1-3.55-3.55V1044.35a3.55,3.55,0,0,1,3.55-3.55h70.292a3.55,3.55,0,0,1,3.55,3.55v70.291A3.536,3.536,0,0,1,372.841,1118.191Z" transform="translate(-280.344 -1021.813)"/><path class="a" d="M243.519,986.36H211.242a2.634,2.634,0,0,1-2.642-2.642V951.442a2.634,2.634,0,0,1,2.642-2.642h32.277a2.634,2.634,0,0,1,2.642,2.642v32.277A2.634,2.634,0,0,1,243.519,986.36Z" transform="translate(-208.6 -948.8)"/></svg>