<svg xmlns="http://www.w3.org/2000/svg" width="76.393" height="75.048" viewBox="0 0 76.393 75.048"><defs><style>.a{fill:blue;opacity:0.03;}</style></defs><path class="a" d="M306.229,144.229h32.74a7.362,7.362,0,0,0,7.361-7.361V104.161a7.362,7.362,0,0,0-7.361-7.361H306.261a7.362,7.362,0,0,0-7.361,7.361v32.708A7.355,7.355,0,0,0,306.229,144.229Z" transform="translate(-269.937 -96.8)"/><path class="a" d="M407.453,238.757H439.1a5.941,5.941,0,0,0,5.953-5.953V201.153A5.941,5.941,0,0,0,439.1,195.2H407.453a5.941,5.941,0,0,0-5.953,5.953V232.8A5.962,5.962,0,0,0,407.453,238.757Z" transform="translate(-401.5 -163.709)"/></svg>