<svg xmlns="http://www.w3.org/2000/svg" width="86.327" height="82.066" viewBox="0 0 86.327 82.066"><defs><style>.a{fill:blue;opacity:0.02;}</style></defs><path class="a" d="M1584.6,155.791h50.59a4.213,4.213,0,0,0,4.2-4.2V101a4.213,4.213,0,0,0-4.2-4.2H1584.6a4.213,4.213,0,0,0-4.2,4.2v50.59A4.194,4.194,0,0,0,1584.6,155.791Z" transform="translate(-1580.4 -96.8)"/><path class="a" d="M1495.271,267.129h32.286a5.968,5.968,0,0,0,5.971-5.971V228.871a5.968,5.968,0,0,0-5.971-5.971h-32.286a5.967,5.967,0,0,0-5.971,5.971v32.286A5.967,5.967,0,0,0,1495.271,267.129Z" transform="translate(-1447.202 -185.063)"/></svg>